# xmcd
#
# Track frame offsets: 
#        150
#        15611
#        31298
#        48436
#        64593
#        82734
#        97164
#        123175
#        153936
#        184121
#        212563
#        236849
#        257988
#        284489
#        303937
#        328636
#
# Disc length: 4597 seconds
#
# Revision: 2
# Processed by: cddbd v1.5.2PL0 Copyright (c) Steve Scherf et al.
# Submitted via: ExactAudioCopyFreeDBPlugin 1.0
#
DISCID=d611f310
DTITLE=Donny Hathaway - Someday We'll All Be Free
DYEAR=2010
DGENRE=Soul
TTITLE0=Voices Inside (Everything is Everything)
TTITLE1=Je Vous Aime (I Love You)
TTITLE2=I Believe to My Soul
TTITLE3=Misty
TTITLE4=Sugar Lee
TTITLE5=Tryin' Times
TTITLE6=Thank You Master (For My Soul)
TTITLE7=The Ghetto
TTITLE8=To Be Young, Gifted and Black
TTITLE9=Giving Up
TTITLE10=A Song for You
TTITLE11=Little Girl
TTITLE12=He Ain't Heavy, He's My Brother
TTITLE13=Magnificent Sanctuary Band
TTITLE14=She is My Lady
TTITLE15=I Believe in Music
EXTD=YEAR: 2010
EXTT0=
EXTT1=
EXTT2=
EXTT3=
EXTT4=
EXTT5=
EXTT6=
EXTT7=
EXTT8=
EXTT9=
EXTT10=
EXTT11=
EXTT12=
EXTT13=
EXTT14=
EXTT15=
PLAYORDER=
